<svg width="189" height="56" viewBox="0 0 189 56" fill="none" xmlns="http://www.w3.org/2000/svg">
<path d="M39.455 54.0945L37.5253 13.6304C37.49 12.8872 37.9676 12.2603 38.5703 12.2603H42.4288C43.0315 12.2603 43.5091 12.8872 43.4738 13.6304L41.5441 54.0945C41.4684 55.7183 39.5325 55.7183 39.455 54.0945Z" fill="url(#paint0_linear_634_4423)"/>
<path d="M40.4989 10.005C43.154 10.005 45.3064 7.83873 45.3064 5.16655C45.3064 2.49436 43.154 0.328125 40.4989 0.328125C37.8438 0.328125 35.6914 2.49436 35.6914 5.16655C35.6914 7.83873 37.8438 10.005 40.4989 10.005Z" fill="url(#paint1_radial_634_4423)"/>
<path d="M43.583 13.8101H37.415C36.7824 13.8101 36.2695 13.294 36.2695 12.6572C36.2695 12.0205 36.7824 11.5044 37.415 11.5044H43.583C44.2157 11.5044 44.7285 12.0205 44.7285 12.6572C44.7285 13.294 44.2157 13.8101 43.583 13.8101Z" fill="#00868A"/>
<path d="M80.5312 24.6097L51.9795 13.3774C51.7125 13.2718 51.4077 13.3286 51.2006 13.5281C48.4135 16.2134 44.2545 17.0328 41.1265 17.2323C40.9177 17.2456 40.7088 17.2527 40.5 17.2527V26.0197C42.5055 26.0197 44.5118 26.6271 46.2327 27.8412C47.5641 28.7803 48.8541 29.7452 49.9899 30.6213C52.6518 32.6734 56.1165 33.3491 59.3485 32.4517C59.9592 32.2823 60.0905 31.47 59.5653 31.1144L51.0931 25.6348C50.3221 25.1125 51.0147 23.9268 51.843 24.3516L62.8158 30.9814C62.9788 31.0647 63.1665 31.0851 63.3428 31.0372L69.1186 29.4871C69.7769 29.3106 69.8694 28.4096 69.2614 28.101L54.9604 21.8535C54.1225 21.4287 54.6811 20.1552 55.5579 20.4913L73.4618 27.9857C73.6345 28.0522 73.8257 28.0505 73.9975 27.9822L80.5312 25.9984C81.1568 25.7483 81.1568 24.858 80.5312 24.6097Z" fill="url(#paint2_linear_634_4423)"/>
<path d="M39.8731 17.2323C36.7451 17.0319 32.5861 16.2134 29.799 13.5281C29.5919 13.3286 29.2871 13.2718 29.0201 13.3774L0.469318 24.6097C-0.156293 24.8571 -0.156293 25.7483 0.468437 25.9966L7.00211 27.9804C7.17393 28.0487 7.36514 28.0505 7.53784 27.984L25.4418 20.4896C26.3185 20.1535 26.8763 21.4269 26.0392 21.8517L11.7382 28.0993C11.1303 28.4079 11.2228 29.3089 11.881 29.4853L17.6569 31.0355C17.8331 31.0825 18.0217 31.063 18.1838 30.9796L29.1567 24.3498C29.9849 23.9251 30.6784 25.1107 29.9065 25.633L21.4343 31.1126C20.9092 31.4682 21.0405 32.2806 21.6511 32.4499C24.884 33.3474 28.3478 32.6716 31.0097 30.6196C32.1464 29.7434 33.4355 28.7786 34.7669 27.8394C36.4878 26.6254 38.4941 26.0179 40.4996 26.0179V17.2509C40.2908 17.2518 40.0819 17.2456 39.8731 17.2323Z" fill="url(#paint3_linear_634_4423)"/>
<path d="M38.4424 32.8658C37.1683 32.7319 35.9594 32.5988 34.7778 32.3461C32.6154 31.8832 30.9818 31.0239 30.2945 29.989C29.2909 28.477 30.4188 26.5287 32.0506 25.3864C32.5097 25.0645 32.6234 24.4296 32.3035 23.9667C31.9837 23.5046 31.3528 23.3902 30.8928 23.7122C28.0441 25.7066 27.0836 28.8228 28.6089 31.1223C29.8804 33.0387 32.4357 33.9308 34.3557 34.3414C34.4579 34.3636 34.561 34.3831 34.6632 34.4035C35.8016 33.8297 37.1322 33.5814 38.4662 33.3846L38.4424 32.8658Z" fill="url(#paint4_linear_634_4423)"/>
<path d="M42.0415 43.6837C42.9975 43.9702 43.6293 44.3657 43.832 44.8312C43.9756 45.1611 43.8029 45.5744 43.402 45.8599C43.0257 46.1278 42.4697 46.2767 41.9172 46.283L41.8203 48.3244C41.845 48.3244 41.8697 48.3253 41.8943 48.3253C42.8698 48.3253 43.8408 48.0459 44.573 47.5254C45.7617 46.6793 46.2208 45.2356 45.6885 44.0136C45.4727 43.5179 45.1273 43.0842 44.6541 42.7153C43.8892 42.9282 43.0284 43.0869 42.0653 43.1915L42.0415 43.6837Z" fill="url(#paint5_linear_634_4423)"/>
<path d="M47.4709 35.1509C47.1228 34.852 46.7413 34.6073 46.336 34.4033C45.0962 34.649 43.8291 34.7829 42.6017 34.9123C42.555 34.9177 42.5065 34.9221 42.4598 34.9274L42.436 35.432C43.926 35.6582 45.2803 35.9508 46.1553 36.7028C46.6761 37.1507 46.9774 37.7492 46.9801 38.3443C46.9827 38.8453 46.773 39.295 46.3738 39.6461C45.5332 40.384 44.1199 40.8815 42.1646 41.1271C41.8853 41.1626 41.5954 41.1918 41.2941 41.2167C41.0209 41.2388 40.7566 41.2672 40.501 41.2991C39.9063 41.3736 39.3591 41.4721 38.8595 41.5962C37.8056 41.8587 36.9668 42.2321 36.3473 42.7154C35.8742 43.0843 35.5288 43.517 35.3129 44.0137C34.7815 45.2357 35.2406 46.6794 36.4284 47.5254C37.1597 48.046 38.1316 48.3253 39.1071 48.3253C39.1317 48.3253 39.1564 48.3244 39.1811 48.3244L39.0842 46.283C38.5317 46.2777 37.9757 46.1278 37.5994 45.86C37.1985 45.5744 37.0267 45.1612 37.1703 44.8313C37.373 44.3657 38.0048 43.9711 38.9608 43.6838C39.4075 43.5499 39.9248 43.4399 40.5028 43.3565C40.8068 43.3131 41.1258 43.2767 41.4615 43.2492C41.6685 43.2324 41.8694 43.212 42.0677 43.1907C43.0308 43.0861 43.8917 42.9273 44.6565 42.7145C45.935 42.3589 46.9466 41.8516 47.7088 41.1821C48.5529 40.4407 49.0155 39.4289 49.0093 38.3328C49.0005 37.1436 48.441 35.9836 47.4709 35.1509Z" fill="url(#paint6_linear_634_4423)"/>
<path d="M50.1078 23.7122C49.6488 23.3902 49.017 23.5046 48.6971 23.9667C48.3773 24.4287 48.4909 25.0645 48.95 25.3864C50.5819 26.5295 51.7089 28.477 50.7061 29.989C50.0197 31.0239 48.3852 31.8832 46.2229 32.3461C45.0421 32.5988 43.8332 32.731 42.5582 32.8658C42.5027 32.872 42.4472 32.8773 42.3917 32.8835C41.7713 32.9482 41.1352 33.0156 40.5007 33.0972C40.2831 33.1256 40.0663 33.1549 39.8496 33.1868C39.6222 33.2205 39.3931 33.2524 39.1641 33.2843C38.9323 33.3172 38.7006 33.35 38.4679 33.3837C37.1339 33.5805 35.8025 33.8297 34.6649 34.4026C34.2596 34.6066 33.8781 34.8513 33.53 35.1502C32.5608 35.9838 32.0004 37.1428 31.9942 38.3321C31.988 39.4281 32.4506 40.44 33.2948 41.1814C34.057 41.8509 35.0676 42.3582 36.347 42.7138C36.9665 42.2305 37.8053 41.8571 38.8592 41.5946L38.8371 41.1255C36.8819 40.8798 35.4685 40.3824 34.6279 39.6445C34.2288 39.2934 34.0191 38.8437 34.0217 38.3427C34.0252 37.7468 34.3257 37.1491 34.8465 36.7012C35.7223 35.9492 37.0757 35.6566 38.5658 35.4304C38.8548 35.387 39.1482 35.3453 39.4443 35.3036C39.6778 35.2708 39.9113 35.238 40.1439 35.2034C40.262 35.1857 40.3818 35.1706 40.5007 35.1546C41.1493 35.0668 41.811 34.9941 42.4595 34.9258C42.5071 34.9205 42.5547 34.9161 42.6014 34.9108C43.8297 34.7822 45.0959 34.6474 46.3357 34.4017C46.4379 34.3813 46.541 34.3618 46.6432 34.3396C48.5632 33.9291 51.1185 33.036 52.39 31.1205C53.9161 28.8228 52.9566 25.7066 50.1078 23.7122Z" fill="url(#paint7_linear_634_4423)"/>
<path d="M123.289 14.1567L123.457 14.3095V15.2431L123.308 15.3768C121.943 15.415 121.097 15.4856 120.768 15.5868C120.44 15.688 120.207 15.856 120.071 16.0909C119.935 16.3257 119.857 16.7858 119.838 17.4713C119.819 18.1567 119.786 20.0947 119.735 23.2813V32.0641C119.735 33.3338 119.754 34.7696 119.791 36.3696C119.829 37.9696 119.905 38.9013 120.024 39.161C120.142 39.4206 120.356 39.6116 120.666 39.7318C120.975 39.8521 121.857 39.9323 123.308 39.9705L123.457 40.1042V41.0378L123.289 41.1905C121.268 41.076 119.506 41.0187 118.005 41.0187C116.987 41.0187 115.257 41.076 112.815 41.1905L112.647 41.0378V40.1232L112.796 39.9705C114.161 39.9323 115.007 39.8636 115.335 39.7605C115.664 39.6593 115.897 39.4913 116.033 39.2564C116.169 39.0216 116.249 38.5557 116.275 37.8569C116.299 37.1581 116.331 35.2278 116.368 32.066V18.0823L109.949 31.8369C108.336 35.2793 106.929 38.5175 105.726 41.5533H105.001C104.305 39.9151 103.735 38.6073 103.289 37.6278L94.3957 18.7104V32.0278C94.3957 33.2727 94.4106 34.7046 94.4423 36.3237C94.474 37.9428 94.5505 38.8803 94.6754 39.1342C94.7984 39.3882 95.0166 39.5791 95.3261 39.7051C95.6356 39.833 96.5175 39.9075 97.968 39.9342L98.1172 40.087V41.0015L97.9494 41.1734L96.758 41.1161C95.5293 41.0531 94.4759 41.0206 93.5959 41.0206C93.1987 41.0206 91.7165 41.0703 89.1492 41.1734L89 41.0206V40.1061L89.1492 39.9342C90.5139 39.9094 91.3567 39.8464 91.6792 39.7433C92.0018 39.6421 92.2348 39.4703 92.3765 39.2297C92.5182 38.9891 92.6003 38.5385 92.6189 37.8779C92.6375 37.2173 92.6655 35.2679 92.7028 32.0297V23.3042C92.7028 22.1491 92.6879 20.7419 92.6562 19.0846C92.6245 17.4274 92.5499 16.4689 92.4325 16.2073C92.315 15.9477 92.1006 15.7529 91.7911 15.6269C91.4816 15.5009 90.5997 15.4245 89.1492 15.3978L89 15.245V14.3286L89.1678 14.1567C90.0236 14.2197 91.1777 14.2522 92.6282 14.2522C93.993 14.2522 95.1825 14.2217 96.2005 14.1567C97.2427 16.6216 98.2402 18.8498 99.1967 20.845L106.248 35.6669L112.611 22.0823C114.336 18.4126 115.496 15.7701 116.09 14.1567C117.282 14.2197 118.453 14.2522 119.607 14.2522C120.647 14.2522 121.874 14.2217 123.289 14.1567Z" fill="#333333"/>
<path d="M125.689 14.2337L125.839 14.1001C130.093 14.1765 132.815 14.2147 134.007 14.2147C138.075 14.2147 141.696 14.1765 144.871 14.1001L144.964 14.2337C144.655 15.4538 144.425 17.365 144.276 19.9693L144.164 20.122H143.253L143.085 19.9693C143.098 19.8547 143.103 19.7535 143.103 19.6638C143.103 18.585 143.023 17.5559 142.861 16.5765C142.08 16.2213 140.997 15.9884 139.615 15.8815C138.232 15.7746 137.193 15.7192 136.5 15.7192C135.519 15.7192 134.268 15.7898 132.741 15.9292L132.666 18.9765L132.61 22.4628L132.554 26.3311C133.893 26.4075 135.127 26.4456 136.257 26.4456C137.398 26.4456 138.353 26.4075 139.123 26.3311C139.891 26.2547 140.342 26.1764 140.471 26.0924C140.601 26.0103 140.7 25.8519 140.769 25.617C140.836 25.3822 140.896 24.9659 140.946 24.3683L141.021 23.1865L141.17 23.0337H142.026L142.175 23.1865C142.151 24.5707 142.119 25.9626 142.082 27.3583L142.175 31.6447L142.026 31.7974H141.17L141.021 31.6447L140.89 30.501C140.778 29.6113 140.698 29.0824 140.648 28.9106C140.598 28.7387 140.484 28.5898 140.303 28.4638C140.122 28.3378 139.662 28.2347 138.918 28.1583C138.174 28.0819 137.15 28.0437 135.849 28.0437C135.129 28.0437 134.031 28.0762 132.556 28.1392C132.495 29.2065 132.463 30.9841 132.463 33.4738C132.463 36.1411 132.495 38.1038 132.556 39.3602H135.979C138.994 39.3602 140.879 39.322 141.634 39.2456C142.391 39.1692 143.111 38.9859 143.793 38.6938C143.905 38.4017 144.088 37.7258 144.341 36.6642C144.595 35.6046 144.742 34.9401 144.78 34.6728L144.966 34.5392H145.859L146.008 34.6728C145.896 35.2189 145.788 36.1716 145.682 37.5311C145.576 38.8905 145.524 40.0532 145.524 41.0174L145.393 41.1702C143.023 41.0938 139.923 41.0556 136.091 41.0556L131.031 41.0174C129.853 41.0174 128.624 41.0671 127.347 41.1702L127.198 41.0174V40.3893L127.347 40.1983C128.078 39.8165 128.497 39.5797 128.604 39.4843C128.708 39.3888 128.796 38.2776 128.865 36.1506C128.932 34.0237 128.967 32.4008 128.967 31.2838V24.2939L128.949 19.9693C128.949 19.0299 128.935 18.2643 128.911 17.6743C128.887 17.0843 128.842 16.6624 128.781 16.4065C128.719 16.1526 128.646 15.975 128.566 15.8738C128.486 15.7726 128.356 15.6867 128.175 15.6161C127.994 15.5454 127.688 15.4863 127.254 15.4347L125.84 15.3201L125.691 15.1865V14.2337H125.689Z" fill="#333333"/>
<path d="M148.162 14.2329L148.311 14.0992C150.457 14.2004 151.921 14.252 152.702 14.252L161.409 14.061C163.889 14.061 165.923 14.2997 167.511 14.7751C169.1 15.2505 170.509 16.0773 171.744 17.2515C172.978 18.4257 173.914 19.7928 174.553 21.3469C175.191 22.903 175.512 24.5641 175.512 26.3283C175.512 28.0429 175.221 29.7383 174.637 31.4147C174.054 33.091 173.226 34.5937 172.154 35.9206C171.082 37.2476 169.859 38.3187 168.488 39.1302C167.118 39.9435 165.744 40.4858 164.368 40.7588C162.992 41.0318 161.584 41.1674 160.145 41.1674C159.177 41.1674 157.354 41.1292 154.675 41.0528C153.795 41.028 153.211 41.0146 152.926 41.0146C152.07 41.0146 151.033 41.0643 149.82 41.1674L149.67 41.0146V40.3865L149.82 40.1956C150.55 39.8137 150.97 39.5769 151.076 39.4815C151.181 39.386 151.268 38.2748 151.337 36.1478C151.404 34.0209 151.44 32.398 151.44 31.281V24.293L151.421 19.9684C151.421 19.029 151.408 18.2634 151.384 17.6734C151.36 17.0835 151.315 16.6615 151.253 16.4057C151.192 16.1517 151.119 15.9742 151.039 15.873C150.959 15.7718 150.828 15.6859 150.647 15.6152C150.468 15.5446 150.161 15.4854 149.726 15.4338L148.313 15.3193L148.164 15.1856V14.2329H148.162ZM155.046 39.0958C156.312 39.3497 157.768 39.4777 159.418 39.4777C162.308 39.4777 164.618 38.9832 166.348 37.9922C168.078 37.0013 169.37 35.535 170.226 33.5913C171.082 31.6476 171.511 29.4576 171.511 27.0195C171.511 23.4242 170.575 20.6367 168.701 18.6548C166.829 16.673 163.876 15.682 159.845 15.682C158.184 15.682 156.582 15.81 155.046 16.0639C154.947 18.1469 154.897 20.4973 154.897 23.113V29.0949L154.934 34.6968C154.934 35.787 154.971 37.2552 155.046 39.0958Z" fill="#333333"/>
<path d="M178.19 14.1001L180.515 14.1765C182.04 14.228 183.04 14.2528 183.511 14.2528C183.933 14.2528 185.713 14.2032 188.851 14.1001L189 14.2337V15.1865L188.851 15.3201C187.995 15.345 187.335 15.3831 186.869 15.4347C186.403 15.4862 186.066 15.5817 185.855 15.7211C185.644 15.8605 185.504 16.187 185.435 16.7025C185.366 17.2161 185.333 17.9321 185.333 18.8466L185.296 23.2285V32.0494L185.314 35.7649C185.327 37.2007 185.363 38.1267 185.426 38.5468C185.488 38.9668 185.577 39.2456 185.696 39.385C185.814 39.5243 186.041 39.6427 186.375 39.7382C186.711 39.8336 187.535 39.9062 188.849 39.9577L188.998 40.0723V41.025L188.849 41.1778C188.788 41.1778 187.695 41.1396 185.575 41.0632C184.695 41.0384 184.005 41.025 183.509 41.025C183.125 41.025 181.35 41.0747 178.188 41.1778L178.039 41.025V40.0723L178.188 39.9577C179.342 39.9081 180.11 39.8432 180.495 39.7668C180.879 39.6904 181.136 39.5931 181.266 39.4709C181.397 39.3506 181.501 39.0928 181.583 38.6995C181.664 38.3062 181.71 37.4298 181.723 36.0704L181.742 32.0513V23.2304L181.705 19.5149C181.692 18.0676 181.658 17.134 181.602 16.7139C181.546 16.2939 181.458 16.0151 181.341 15.8757C181.224 15.7364 180.996 15.6218 180.662 15.5321C180.327 15.4442 179.503 15.3736 178.188 15.322L178.039 15.1884V14.2337L178.19 14.1001Z" fill="#333333"/>
<defs>
<linearGradient id="paint0_linear_634_4423" x1="40.5003" y1="55.3126" x2="40.5003" y2="12.2609" gradientUnits="userSpaceOnUse">
<stop stop-color="#4FBFA5"/>
<stop offset="1" stop-color="#006A65"/>
</linearGradient>
<radialGradient id="paint1_radial_634_4423" cx="0" cy="0" r="1" gradientUnits="userSpaceOnUse" gradientTransform="translate(39.3097 4.50126) scale(4.80728 4.8382)">
<stop stop-color="#4FBFA5"/>
<stop offset="1" stop-color="#00868A"/>
</radialGradient>
<linearGradient id="paint2_linear_634_4423" x1="40.5003" y1="23.082" x2="81.0005" y2="23.082" gradientUnits="userSpaceOnUse">
<stop stop-color="#4FBFA5"/>
<stop offset="1" stop-color="#00868A"/>
</linearGradient>
<linearGradient id="paint3_linear_634_4423" x1="-0.00033037" y1="23.082" x2="40.4999" y2="23.082" gradientUnits="userSpaceOnUse">
<stop stop-color="#4FBFA5"/>
<stop offset="1" stop-color="#00868A"/>
</linearGradient>
<linearGradient id="paint4_linear_634_4423" x1="27.8897" y1="28.9661" x2="38.4674" y2="28.9661" gradientUnits="userSpaceOnUse">
<stop stop-color="#4FBFA5"/>
<stop offset="1" stop-color="#00868A"/>
</linearGradient>
<linearGradient id="paint5_linear_634_4423" x1="41.8201" y1="45.5201" x2="45.9074" y2="45.5201" gradientUnits="userSpaceOnUse">
<stop stop-color="#00868A"/>
<stop offset="1" stop-color="#4FBFA5"/>
</linearGradient>
<linearGradient id="paint6_linear_634_4423" x1="35.0928" y1="41.3641" x2="49.0067" y2="41.3641" gradientUnits="userSpaceOnUse">
<stop stop-color="#00868A"/>
<stop offset="1" stop-color="#4FBFA5"/>
</linearGradient>
<linearGradient id="paint7_linear_634_4423" x1="31.9948" y1="33.1222" x2="53.1115" y2="33.1222" gradientUnits="userSpaceOnUse">
<stop stop-color="#4FBFA5"/>
<stop offset="1" stop-color="#00868A"/>
</linearGradient>
</defs>
</svg>
