<svg width="24" height="24" viewBox="0 0 24 24" fill="none" xmlns="http://www.w3.org/2000/svg">
<g id="youtube">
<path id="Vector" d="M22.0581 6.94539C21.9386 6.50142 21.7045 6.09662 21.3794 5.77152C21.0543 5.44641 20.6495 5.21239 20.2056 5.09289C18.5706 4.65039 12.0006 4.65039 12.0006 4.65039C12.0006 4.65039 5.43056 4.65039 3.79556 5.09289C3.35159 5.21239 2.9468 5.44641 2.62169 5.77152C2.29658 6.09662 2.06257 6.50142 1.94306 6.94539C1.63777 8.61284 1.48962 10.3053 1.50056 12.0004C1.48962 13.6955 1.63777 15.3879 1.94306 17.0554C2.06257 17.4994 2.29658 17.9042 2.62169 18.2293C2.9468 18.5544 3.35159 18.7884 3.79556 18.9079C5.43056 19.3504 12.0006 19.3504 12.0006 19.3504C12.0006 19.3504 18.5706 19.3504 20.2056 18.9079C20.6495 18.7884 21.0543 18.5544 21.3794 18.2293C21.7045 17.9042 21.9386 17.4994 22.0581 17.0554C22.3634 15.3879 22.5115 13.6955 22.5006 12.0004C22.5115 10.3053 22.3634 8.61284 22.0581 6.94539ZM9.90056 15.1504V8.85039L15.3531 12.0004L9.90056 15.1504Z" fill="#4FBFA5"/>
</g>
</svg>
